<svg id="Layer_1" data-name="Layer 1" xmlns="http://www.w3.org/2000/svg" viewBox="0 0 1243.21 480.51"><defs><style>.cls-2{fill:#d3a638;}</style></defs><path class="cls-2" d="M210.15,272.12v65.54a1.63,1.63,0,0,1-2.78,1.16l-65.24-65.08a1.66,1.66,0,0,1-.48-1.15V206.78a1.63,1.63,0,0,1,2.78-1.16l65,64.66A2.6,2.6,0,0,1,210.15,272.12Z"/><path class="cls-2" d="M283.11,206.78v65.81a1.66,1.66,0,0,1-.48,1.15l-65.25,65.08a1.63,1.63,0,0,1-2.77-1.16V272.12a2.6,2.6,0,0,1,.76-1.84l65-64.66A1.63,1.63,0,0,1,283.11,206.78Z"/><path class="cls-2" d="M213.81,142.55l.2.38a79.25,79.25,0,0,0,31.47,31.46l.37.2a1.63,1.63,0,0,1,0,2.86l-.37.21A79.19,79.19,0,0,0,214,209.12l-.2.37a1.63,1.63,0,0,1-2.86,0l-.2-.37a79.19,79.19,0,0,0-31.47-31.46l-.37-.21a1.63,1.63,0,0,1,0-2.86l.37-.2a79.25,79.25,0,0,0,31.47-31.46l.2-.38A1.63,1.63,0,0,1,213.81,142.55Z"/><path class="cls-2" d="M390.58,310.86,339.84,170.14H371L408.42,277l37.46-106.83H477L426.06,310.86Z"/><path class="cls-2" d="M553.33,204.62v15a31.2,31.2,0,0,0-12.49-12.86q-8.16-4.55-19.43-4.56-14.46,0-24.1,7.34a45.37,45.37,0,0,0-14.57,19.9,83.92,83.92,0,0,0,0,56.68A44.36,44.36,0,0,0,497.42,306q9.69,7.23,24,7.23a41.52,41.52,0,0,0,15.74-2.85,33.36,33.36,0,0,0,12-8.25,28.92,28.92,0,0,0,4.9-7.12l.66,15.85h28.33V204.62Zm-2.19,69.68a25,25,0,0,1-7,11.8c-3.22,2.88-7.56,4.34-13,4.34a17.94,17.94,0,0,1-12.6-4.56,28.14,28.14,0,0,1-7.63-12,49.21,49.21,0,0,1-2.55-16.14,51.59,51.59,0,0,1,2.44-16.47,27,27,0,0,1,7.56-11.8A18.65,18.65,0,0,1,531.12,225c5.41,0,9.75,1.42,13,4.27a24,24,0,0,1,7,11.58,64.8,64.8,0,0,1,0,33.41Z"/><path class="cls-2" d="M637,310.86q-13.08,0-20.41-6.54t-7.34-21.21v-113h29.73v109.8q0,4.76,2.18,6.74t6.35,2h7.13v22.2Z"/><path class="cls-2" d="M704.34,226.83V275.4q0,7.73,3.28,10.48c2.19,1.86,5.44,2.77,9.83,2.77h14.86v22.21H706.53c-11,0-19-2.52-24.18-7.63s-7.74-13.19-7.74-24.29V226.83h-17V204.62h17v-25h29.73v25h28v22.21Z"/><path class="cls-2" d="M815.54,204.62V229.2h-9.72q-8.33,0-13.66,2.19a15.69,15.69,0,0,0-8,6.94c-1.79,3.18-2.67,7.45-2.67,12.86v59.67H751.7V204.62h28.16l.69,21.73c1.72-6.35,4.16-11.21,7.23-14.61,4.38-4.74,10.37-7.12,18-7.12Z"/><path class="cls-2" d="M830.6,193.2V169.75h30.73V193.2Zm.6,117.66V206.1h29.73V310.86Z"/><path class="cls-2" d="M933.08,313.24q-16.26,0-28.34-6.83a47.85,47.85,0,0,1-18.84-19.33q-6.74-12.49-6.74-29.34t6.74-29.23a48.6,48.6,0,0,1,18.84-19.33q12.07-6.93,28.34-6.94t28.34,6.94a48.64,48.64,0,0,1,18.83,19.33Q987,240.9,987,257.74t-6.74,29.34a47.88,47.88,0,0,1-18.83,19.33Q949.33,313.23,933.08,313.24Zm0-22.79q11.1,0,17.24-8.62t6.15-24.09q0-15.45-6.15-24.08T933.08,225q-11.1,0-17.25,8.62t-6.14,24.08q0,15.47,6.14,24.09T933.08,290.45Z"/><path class="cls-2" d="M991,310.86,1028.82,257,992,204.62h31.51l22.8,34.1,22-34.1h32.31l-36.67,52.53,37.66,53.71H1070l-23.39-36.07-23.58,36.07Z"/></svg>