<svg id="Layer_1" data-name="Layer 1" xmlns="http://www.w3.org/2000/svg" viewBox="0 0 234.09 281.06"><defs><style>.cls-1{fill:#151a26;}.cls-2{fill:#d3a638;}.cls-3{fill:#f9fafb;}</style></defs><rect class="cls-1" x="0.2" y="0.33" width="233.69" height="280.53"/><path class="cls-2" d="M115.18,167.05V222a1.37,1.37,0,0,1-2.33,1L58.15,168.4a1.37,1.37,0,0,1-.4-1V112.26a1.36,1.36,0,0,1,2.33-1l54.46,54.21A2.2,2.2,0,0,1,115.18,167.05Z"/><path class="cls-2" d="M176.35,112.26v55.17a1.38,1.38,0,0,1-.41,1L121.24,223a1.37,1.37,0,0,1-2.33-1V167.05a2.2,2.2,0,0,1,.64-1.55L174,111.29A1.37,1.37,0,0,1,176.35,112.26Z"/><path class="cls-3" d="M118.24,58.41l.18.31A66.4,66.4,0,0,0,144.79,85.1l.32.17a1.37,1.37,0,0,1,0,2.4l-.32.17a66.34,66.34,0,0,0-26.37,26.38l-.18.31a1.36,1.36,0,0,1-2.39,0l-.17-.31A66.36,66.36,0,0,0,89.3,87.84L89,87.67a1.37,1.37,0,0,1,0-2.4l.32-.17a66.43,66.43,0,0,0,26.38-26.38l.17-.31A1.36,1.36,0,0,1,118.24,58.41Z"/></svg>